<?xml version="1.0" encoding="UTF-8"?>
<svg xmlns="http://www.w3.org/2000/svg" viewBox="0 0 169 166.45">
  <rect fill="#a5471b" x=".29" y="-1.94" width="168.39" height="168.39" rx="24.06" ry="24.06"/>
  <g fill="none" stroke="#ffffff" stroke-linecap="round" stroke-linejoin="round" stroke-width="10">
    <circle cx="84.5" cy="82.5" r="20"/>
    <path d="M84.5 43v-15"/>
    <path d="M84.5 137v-15"/>
    <path d="M45 82.5h-15"/>
    <path d="M139 82.5h-15"/>
    <path d="M56.7 54.7 46.1 44.1"/>
    <path d="M122.9 120.9 112.3 110.3"/>
    <path d="M112.3 54.7 122.9 44.1"/>
    <path d="M46.1 120.9 56.7 110.3"/>
    <path d="M72.5 39.5c3.7-1.1 7.7-1.7 12-1.7s8.3.6 12 1.7l4.8 13.4c3.1 1.4 5.9 3.1 8.5 5.3l14-2.7c5.8 6.3 9.7 13.5 11.9 21.7l-9.2 10.8c.1 1.6.2 3.1.2 4.7s-.1 3.1-.2 4.7l9.2 10.8c-2.2 8.2-6.1 15.4-11.9 21.7l-14-2.7c-2.6 2.2-5.4 3.9-8.5 5.3l-4.8 13.4c-3.7 1.1-7.7 1.7-12 1.7s-8.3-.6-12-1.7l-4.8-13.4c-3.1-1.4-5.9-3.1-8.5-5.3l-14 2.7c-5.8-6.3-9.7-13.5-11.9-21.7l9.2-10.8c-.1-1.6-.2-3.1-.2-4.7s.1-3.1.2-4.7l-9.2-10.8c2.2-8.2 6.1-15.4 11.9-21.7l14 2.7c2.6-2.2 5.4-3.9 8.5-5.3z"/>
  </g>
</svg>
